<?xml version="1.0" encoding="UTF-8" standalone="no"?>
<!DOCTYPE svg PUBLIC "-//W3C//DTD SVG 20010904//EN"
              "http://www.w3.org/TR/2001/REC-SVG-20010904/DTD/svg10.dtd">

<svg xmlns="http://www.w3.org/2000/svg"
     width="6.63889in" height="1.19444in"
     viewBox="0 0 478 86">
  <path id="Selection #1"
        fill="#ffffff" stroke="black" stroke-width="1"
        d="M 243.00,5.00
           C 243.00,5.00 243.00,81.00 243.00,81.00
             243.00,81.00 234.00,81.00 234.00,81.00
             234.00,81.00 234.00,5.00 234.00,5.00
             234.00,5.00 243.00,5.00 243.00,5.00 Z
           M 271.00,5.00
           C 271.00,5.00 271.00,81.00 271.00,81.00
             271.00,81.00 262.00,81.00 262.00,81.00
             262.00,81.00 262.00,5.00 262.00,5.00
             262.00,5.00 271.00,5.00 271.00,5.00 Z
           M 306.00,6.00
           C 306.00,6.00 306.00,42.00 306.00,42.00
             306.00,42.00 316.00,42.00 316.00,42.00
             316.00,42.00 316.00,47.00 316.00,47.00
             316.00,47.00 289.00,47.00 289.00,47.00
             289.00,47.00 289.00,42.00 289.00,42.00
             289.00,42.00 299.00,42.00 299.00,42.00
             299.00,42.00 299.00,12.00 299.00,12.00
             299.00,12.00 289.00,13.00 289.00,13.00
             289.00,13.00 289.00,7.00 289.00,7.00
             289.00,7.00 306.00,6.00 306.00,6.00 Z
           M 348.99,7.18
           C 357.42,11.12 356.78,19.67 348.99,24.00
             350.89,25.21 352.92,26.34 354.26,28.21
             358.54,34.13 355.04,42.51 349.00,45.43
             343.16,48.25 332.34,46.84 326.00,46.00
             326.00,46.00 326.00,39.92 326.00,39.92
             331.33,40.70 339.03,42.55 343.95,39.92
             348.65,37.26 349.29,32.90 344.86,29.58
             342.00,27.43 337.46,27.16 334.00,27.00
             334.00,27.00 334.00,22.00 334.00,22.00
             337.02,21.86 341.23,21.59 343.89,20.05
             348.10,17.63 346.97,14.26 342.95,12.76
             338.72,10.69 331.64,12.62 327.00,12.76
             327.00,12.76 327.00,7.18 327.00,7.18
             333.55,6.47 342.83,4.62 348.99,7.18 Z
           M 151.56,33.00
           C 153.91,37.46 153.99,42.11 154.00,47.00
             154.00,47.00 154.00,81.00 154.00,81.00
             154.00,81.00 145.00,81.00 145.00,81.00
             145.00,81.00 144.24,45.00 144.24,45.00
             143.18,38.95 140.82,33.77 134.00,32.86
             126.86,31.90 120.18,37.29 118.35,44.00
             116.22,51.82 117.00,71.91 117.00,81.00
             117.00,81.00 108.00,81.00 108.00,81.00
             108.00,81.00 108.00,26.00 108.00,26.00
             108.00,26.00 117.00,26.00 117.00,26.00
             117.00,26.00 118.00,33.00 118.00,33.00
             124.02,20.59 145.01,20.56 151.56,33.00 Z
           M 180.00,26.00
           C 180.00,26.00 180.76,61.00 180.76,61.00
             181.82,67.05 184.18,72.23 191.00,73.14
             198.24,74.12 204.70,68.69 206.70,62.00
             208.81,54.91 208.00,34.48 208.00,26.00
             208.00,26.00 217.00,26.00 217.00,26.00
             217.00,26.00 217.00,81.00 217.00,81.00
             217.00,81.00 208.00,81.00 208.00,81.00
             208.00,81.00 207.00,73.00 207.00,73.00
             201.07,85.24 180.31,85.63 173.41,73.00
             170.34,67.37 171.00,61.17 171.00,55.00
             171.00,55.00 171.00,26.00 171.00,26.00
             171.00,26.00 180.00,26.00 180.00,26.00 Z" />
</svg>
